<svg xmlns="http://www.w3.org/2000/svg" width="1200" height="360" viewBox="0 0 1200 360" role="img" aria-label="Medicare, Credentialing guide">
  <defs>
    <linearGradient id="bgcredentialingmedicare" x1="0" y1="0" x2="1" y2="1"><stop offset="0" stop-color="#0f2f4a"/><stop offset="1" stop-color="#0f766e"/></linearGradient>
    <radialGradient id="glcredentialingmedicare" cx="0.85" cy="0.2" r="0.6"><stop offset="0" stop-color="#5eead4" stop-opacity="0.5"/><stop offset="1" stop-color="#5eead4" stop-opacity="0"/></radialGradient>
    <pattern id="grcredentialingmedicare" width="40" height="40" patternUnits="userSpaceOnUse"><path d="M40 0H0V40" fill="none" stroke="#ffffff" stroke-opacity="0.07" stroke-width="1"/></pattern>
    <clipPath id="cpcredentialingmedicare"><rect x="860" y="55" width="250" height="250" rx="28"/></clipPath>
  </defs>
  <rect width="1200" height="360" fill="url(#bgcredentialingmedicare)"/>
  <rect width="1200" height="360" fill="url(#grcredentialingmedicare)"/>
  <rect width="1200" height="360" fill="url(#glcredentialingmedicare)"/>
  <circle cx="1040" cy="60" r="170" fill="#5eead4" fill-opacity="0.14"/>
  <circle cx="1110" cy="280" r="110" fill="#ffffff" fill-opacity="0.06"/>
  <rect x="860" y="55" width="250" height="250" rx="28" fill="#ffffff" fill-opacity="0.09" stroke="#5eead4" stroke-opacity="0.55" stroke-width="2"/>
  <g clip-path="url(#cpcredentialingmedicare)"><g transform="translate(880 75) scale(0.4375)">
  <rect x="150" y="100" width="180" height="270" rx="6" fill="none" stroke="#ffffff" stroke-width="5.10" stroke-linejoin="round"/>
  <line x1="174" y1="146" x2="306" y2="146" stroke="#ffffff" stroke-opacity=".7" stroke-width="4.25" stroke-linecap="round"/>
  <line x1="174" y1="180" x2="278" y2="180" stroke="#ffffff" stroke-opacity=".7" stroke-width="3.40" stroke-linecap="round"/>
  <line x1="174" y1="210" x2="306" y2="210" stroke="#ffffff" stroke-opacity=".7" stroke-width="3.40" stroke-linecap="round"/>
  <line x1="174" y1="240" x2="256" y2="240" stroke="#ffffff" stroke-opacity=".7" stroke-width="3.40" stroke-linecap="round"/>
  <line x1="174" y1="270" x2="306" y2="270" stroke="#ffffff" stroke-opacity=".7" stroke-width="3.40" stroke-linecap="round"/>
  <line x1="174" y1="300" x2="244" y2="300" stroke="#ffffff" stroke-opacity=".7" stroke-width="3.40" stroke-linecap="round"/>
  <rect x="186" y="322" width="28" height="28" rx="4" fill="none" stroke="#5eead4" stroke-width="4.25" stroke-linejoin="round"/>
  <path d="M193 336 L202 345 L217 324" fill="none" stroke="#5eead4" stroke-width="5.10" stroke-linecap="round" stroke-linejoin="round"/>
</g></g>
  <rect x="90" y="46" width="72" height="8" rx="4" fill="#5eead4"/>
  <text x="90" y="78" font-family="Inter, 'Segoe UI', Helvetica, Arial, sans-serif" font-size="20" font-weight="600" fill="#ffffff" fill-opacity="0.85" letter-spacing="4">PAYER CREDENTIALING</text>
  <text x="90" y="160" font-family="Inter, 'Segoe UI', Helvetica, Arial, sans-serif" font-size="84" font-weight="800" fill="#ffffff" letter-spacing="-2">Medicare</text>
  <text x="90" y="202" font-family="Inter, 'Segoe UI', Helvetica, Arial, sans-serif" font-size="24" fill="#ffffff" fill-opacity="0.85">Credentialing guide</text>
  <text x="90" y="336" font-family="Inter, 'Segoe UI', Helvetica, Arial, sans-serif" font-size="20" font-weight="600" fill="#ffffff" fill-opacity="0.7">Verified RCM</text>
</svg>
