<svg xmlns="http://www.w3.org/2000/svg" width="1200" height="630" viewBox="0 0 1200 630" role="img" aria-label="Cigna, Credentialing guide">
  <defs>
    <linearGradient id="bgcredentialingcigna" x1="0" y1="0" x2="1" y2="1"><stop offset="0" stop-color="#0f2f4a"/><stop offset="1" stop-color="#0f766e"/></linearGradient>
    <radialGradient id="glcredentialingcigna" cx="0.85" cy="0.2" r="0.6"><stop offset="0" stop-color="#5eead4" stop-opacity="0.5"/><stop offset="1" stop-color="#5eead4" stop-opacity="0"/></radialGradient>
    <pattern id="grcredentialingcigna" width="40" height="40" patternUnits="userSpaceOnUse"><path d="M40 0H0V40" fill="none" stroke="#ffffff" stroke-opacity="0.07" stroke-width="1"/></pattern>
    <clipPath id="cpcredentialingcigna"><rect x="800" y="145" width="340" height="340" rx="28"/></clipPath>
  </defs>
  <rect width="1200" height="630" fill="url(#bgcredentialingcigna)"/>
  <rect width="1200" height="630" fill="url(#grcredentialingcigna)"/>
  <rect width="1200" height="630" fill="url(#glcredentialingcigna)"/>
  <circle cx="1040" cy="130" r="220" fill="#5eead4" fill-opacity="0.14"/>
  <circle cx="1110" cy="550" r="150" fill="#ffffff" fill-opacity="0.06"/>
  <rect x="800" y="145" width="340" height="340" rx="28" fill="#ffffff" fill-opacity="0.09" stroke="#5eead4" stroke-opacity="0.55" stroke-width="2"/>
  <g clip-path="url(#cpcredentialingcigna)"><g transform="translate(820 165) scale(0.6250)">
  <circle cx="240" cy="240" r="138" fill="none" stroke="#ffffff" stroke-opacity=".7" stroke-width="3.40" stroke-dasharray="3 14" stroke-linecap="round"/>
  <circle cx="240" cy="240" r="112" fill="none" stroke="#ffffff" stroke-width="5.10" stroke-linecap="round" stroke-linejoin="round"/>
  <circle cx="240" cy="240" r="94" fill="none" stroke="#ffffff" stroke-opacity=".7" stroke-width="2.55"/>
  <path d="M198 244 L226 272 L288 202" fill="none" stroke="#5eead4" stroke-width="5.95" stroke-linecap="round" stroke-linejoin="round"/>
  <circle cx="288" cy="202" r="4" fill="#5eead4"/>
</g></g>
  <rect x="90" y="118" width="72" height="8" rx="4" fill="#5eead4"/>
  <text x="90" y="178" font-family="Inter, 'Segoe UI', Helvetica, Arial, sans-serif" font-size="24" font-weight="600" fill="#ffffff" fill-opacity="0.85" letter-spacing="4">PAYER CREDENTIALING</text>
  <text x="90" y="292" font-family="Inter, 'Segoe UI', Helvetica, Arial, sans-serif" font-size="112" font-weight="800" fill="#ffffff" letter-spacing="-2">Cigna</text>
  <text x="90" y="354" font-family="Inter, 'Segoe UI', Helvetica, Arial, sans-serif" font-size="30" fill="#ffffff" fill-opacity="0.85">Credentialing guide</text>
  <text x="90" y="560" font-family="Inter, 'Segoe UI', Helvetica, Arial, sans-serif" font-size="22" font-weight="600" fill="#ffffff" fill-opacity="0.7">Verified RCM</text>
</svg>
