<svg xmlns="http://www.w3.org/2000/svg" width="1200" height="360" viewBox="0 0 1200 360" role="img" aria-label="Denials management, Billing process guide">
  <defs>
    <linearGradient id="bgdenialsmanagement" x1="0" y1="0" x2="1" y2="1"><stop offset="0" stop-color="#0f172a"/><stop offset="1" stop-color="#1e3a8a"/></linearGradient>
    <radialGradient id="gldenialsmanagement" cx="0.85" cy="0.2" r="0.6"><stop offset="0" stop-color="#5eead4" stop-opacity="0.5"/><stop offset="1" stop-color="#5eead4" stop-opacity="0"/></radialGradient>
    <pattern id="grdenialsmanagement" width="40" height="40" patternUnits="userSpaceOnUse"><path d="M40 0H0V40" fill="none" stroke="#ffffff" stroke-opacity="0.07" stroke-width="1"/></pattern>
    <clipPath id="cpdenialsmanagement"><rect x="860" y="55" width="250" height="250" rx="28"/></clipPath>
  </defs>
  <rect width="1200" height="360" fill="url(#bgdenialsmanagement)"/>
  <rect width="1200" height="360" fill="url(#grdenialsmanagement)"/>
  <rect width="1200" height="360" fill="url(#gldenialsmanagement)"/>
  <circle cx="1040" cy="60" r="170" fill="#5eead4" fill-opacity="0.14"/>
  <circle cx="1110" cy="280" r="110" fill="#ffffff" fill-opacity="0.06"/>
  <rect x="860" y="55" width="250" height="250" rx="28" fill="#ffffff" fill-opacity="0.09" stroke="#5eead4" stroke-opacity="0.55" stroke-width="2"/>
  <g clip-path="url(#cpdenialsmanagement)"><g transform="translate(880 75) scale(0.4375)">
  
  <path d="M 355 145 A 150 150 0 0 1 385 260" fill="none" stroke="#ffffff" stroke-opacity=".7" stroke-width="2.98" stroke-linecap="round" />
  <path d="M 130 350 A 130 130 0 0 1 110 250" fill="none" stroke="#ffffff" stroke-opacity=".7" stroke-width="2.98" stroke-linecap="round" />

  
  <path d="M 318 122 L 352 122" fill="none" stroke="#ffffff" stroke-opacity=".7" stroke-width="3.40" stroke-linecap="round" />
  <path d="M 312 133 L 352 133" fill="none" stroke="#ffffff" stroke-opacity=".7" stroke-width="3.40" stroke-linecap="round" />
  <path d="M 318 144 L 346 144" fill="none" stroke="#ffffff" stroke-opacity=".7" stroke-width="3.40" stroke-linecap="round" />

  
  <path d="M 240 150 A 90 90 0 1 1 150 240" fill="none" stroke="#ffffff" stroke-width="5.52" stroke-linecap="round" stroke-linejoin="round" />

  
  <path d="M 150 240 C 145 190 190 165 225 190" fill="none" stroke="#ffffff" stroke-width="3.82" stroke-linecap="round" stroke-linejoin="round" />

  
  <path d="M 225 190 C 245 205 230 230 205 222" fill="none" stroke="#5eead4" stroke-width="5.52" stroke-linecap="round" stroke-linejoin="round" />
  <circle cx="205" cy="222" r="4.5" fill="#5eead4" />
</g></g>
  <rect x="90" y="46" width="72" height="8" rx="4" fill="#5eead4"/>
  <text x="90" y="78" font-family="Inter, 'Segoe UI', Helvetica, Arial, sans-serif" font-size="20" font-weight="600" fill="#ffffff" fill-opacity="0.85" letter-spacing="4">REVENUE CYCLE</text>
  <text x="90" y="138" font-family="Inter, 'Segoe UI', Helvetica, Arial, sans-serif" font-size="70" font-weight="800" fill="#ffffff" letter-spacing="-2">Denials</text>
  <text x="90" y="214" font-family="Inter, 'Segoe UI', Helvetica, Arial, sans-serif" font-size="70" font-weight="800" fill="#ffffff" letter-spacing="-2">management</text>
  <text x="90" y="256" font-family="Inter, 'Segoe UI', Helvetica, Arial, sans-serif" font-size="24" fill="#ffffff" fill-opacity="0.85">Billing process guide</text>
  <text x="90" y="336" font-family="Inter, 'Segoe UI', Helvetica, Arial, sans-serif" font-size="20" font-weight="600" fill="#ffffff" fill-opacity="0.7">Verified RCM</text>
</svg>
