<svg xmlns="http://www.w3.org/2000/svg" width="1200" height="630" viewBox="0 0 1200 630" role="img" aria-label="Digital marketing, Growth guide">
  <defs>
    <linearGradient id="bgdigitalmarketing" x1="0" y1="0" x2="1" y2="1"><stop offset="0" stop-color="#164e63"/><stop offset="1" stop-color="#0e7490"/></linearGradient>
    <radialGradient id="gldigitalmarketing" cx="0.85" cy="0.2" r="0.6"><stop offset="0" stop-color="#fcd34d" stop-opacity="0.5"/><stop offset="1" stop-color="#fcd34d" stop-opacity="0"/></radialGradient>
    <pattern id="grdigitalmarketing" width="40" height="40" patternUnits="userSpaceOnUse"><path d="M40 0H0V40" fill="none" stroke="#ffffff" stroke-opacity="0.07" stroke-width="1"/></pattern>
    <clipPath id="cpdigitalmarketing"><rect x="800" y="145" width="340" height="340" rx="28"/></clipPath>
  </defs>
  <rect width="1200" height="630" fill="url(#bgdigitalmarketing)"/>
  <rect width="1200" height="630" fill="url(#grdigitalmarketing)"/>
  <rect width="1200" height="630" fill="url(#gldigitalmarketing)"/>
  <circle cx="1040" cy="130" r="220" fill="#fcd34d" fill-opacity="0.14"/>
  <circle cx="1110" cy="550" r="150" fill="#ffffff" fill-opacity="0.06"/>
  <rect x="800" y="145" width="340" height="340" rx="28" fill="#ffffff" fill-opacity="0.09" stroke="#fcd34d" stroke-opacity="0.55" stroke-width="2"/>
  <g clip-path="url(#cpdigitalmarketing)"><g transform="translate(820 165) scale(0.6250)">
  <line x1="170" y1="280" x2="226.4" y2="124.95" stroke="#ffffff" stroke-opacity=".7" stroke-width="3.40" stroke-linecap="round"/>
  <line x1="170" y1="280" x2="332.5" y2="308.65" stroke="#ffffff" stroke-opacity=".7" stroke-width="3.40" stroke-linecap="round"/>

  <path d="M182.0,247.1 A35,35 0 0,1 204.5,286.1" fill="none" stroke="#ffffff" stroke-width="5.10" stroke-linecap="round" stroke-linejoin="round"/>
  <path d="M193.9,214.2 A70,70 0 0,1 238.9,292.2" fill="none" stroke="#fcd34d" stroke-width="5.44" stroke-linecap="round" stroke-linejoin="round"/>
  <path d="M209.3,171.9 A115,115 0 0,1 283.25,299.96" fill="none" stroke="#ffffff" stroke-opacity=".7" stroke-width="4.25" stroke-linecap="round" stroke-linejoin="round"/>
  <path d="M226.4,124.95 A165,165 0 0,1 332.5,308.65" fill="none" stroke="#ffffff" stroke-opacity=".7" stroke-width="3.40" stroke-linecap="round" stroke-linejoin="round"/>

  <circle cx="170" cy="280" r="6" fill="#fcd34d"/>
  <circle cx="338.9" cy="182.5" r="5" fill="#fcd34d"/>
</g></g>
  <rect x="90" y="118" width="72" height="8" rx="4" fill="#fcd34d"/>
  <text x="90" y="178" font-family="Inter, 'Segoe UI', Helvetica, Arial, sans-serif" font-size="24" font-weight="600" fill="#ffffff" fill-opacity="0.85" letter-spacing="4">PRACTICE GROWTH</text>
  <text x="90" y="292" font-family="Inter, 'Segoe UI', Helvetica, Arial, sans-serif" font-size="112" font-weight="800" fill="#ffffff" letter-spacing="-2">Digital</text>
  <text x="90" y="413" font-family="Inter, 'Segoe UI', Helvetica, Arial, sans-serif" font-size="112" font-weight="800" fill="#ffffff" letter-spacing="-2">marketing</text>
  <text x="90" y="475" font-family="Inter, 'Segoe UI', Helvetica, Arial, sans-serif" font-size="30" fill="#ffffff" fill-opacity="0.85">Growth guide</text>
  <text x="90" y="560" font-family="Inter, 'Segoe UI', Helvetica, Arial, sans-serif" font-size="22" font-weight="600" fill="#ffffff" fill-opacity="0.7">Verified RCM</text>
</svg>
