<svg xmlns="http://www.w3.org/2000/svg" width="1200" height="360" viewBox="0 0 1200 360" role="img" aria-label="Prior authorization, Billing process guide">
  <defs>
    <linearGradient id="bgpriorauth" x1="0" y1="0" x2="1" y2="1"><stop offset="0" stop-color="#0f172a"/><stop offset="1" stop-color="#1e3a8a"/></linearGradient>
    <radialGradient id="glpriorauth" cx="0.85" cy="0.2" r="0.6"><stop offset="0" stop-color="#5eead4" stop-opacity="0.5"/><stop offset="1" stop-color="#5eead4" stop-opacity="0"/></radialGradient>
    <pattern id="grpriorauth" width="40" height="40" patternUnits="userSpaceOnUse"><path d="M40 0H0V40" fill="none" stroke="#ffffff" stroke-opacity="0.07" stroke-width="1"/></pattern>
    <clipPath id="cppriorauth"><rect x="860" y="55" width="250" height="250" rx="28"/></clipPath>
  </defs>
  <rect width="1200" height="360" fill="url(#bgpriorauth)"/>
  <rect width="1200" height="360" fill="url(#grpriorauth)"/>
  <rect width="1200" height="360" fill="url(#glpriorauth)"/>
  <circle cx="1040" cy="60" r="170" fill="#5eead4" fill-opacity="0.14"/>
  <circle cx="1110" cy="280" r="110" fill="#ffffff" fill-opacity="0.06"/>
  <rect x="860" y="55" width="250" height="250" rx="28" fill="#ffffff" fill-opacity="0.09" stroke="#5eead4" stroke-opacity="0.55" stroke-width="2"/>
  <g clip-path="url(#cppriorauth)"><g transform="translate(880 75) scale(0.4375)">
  <line x1="170" y1="130" x2="170" y2="350" stroke="#ffffff" stroke-opacity=".7" stroke-width="4.25" stroke-linecap="round"/>
  <line x1="310" y1="130" x2="310" y2="350" stroke="#ffffff" stroke-opacity=".7" stroke-width="4.25" stroke-linecap="round"/>
  <circle cx="170" cy="130" r="6" stroke="#ffffff" stroke-width="3.40" fill="none"/>
  <circle cx="310" cy="130" r="6" stroke="#ffffff" stroke-width="3.40" fill="none"/>
  <line x1="150" y1="350" x2="330" y2="350" stroke="#ffffff" stroke-opacity=".7" stroke-width="3.40" stroke-linecap="round"/>
  <path d="M170,240 Q240,150 310,240" fill="none" stroke="#ffffff" stroke-opacity=".7" stroke-width="2.55" stroke-linecap="round"/>
  <line x1="170" y1="240" x2="310" y2="240" stroke="#5eead4" stroke-width="5.95" stroke-linecap="round"/>
  <circle cx="240" cy="240" r="5" fill="#5eead4"/>
  <line x1="120" y1="310" x2="150" y2="290" stroke="#ffffff" stroke-opacity=".7" stroke-width="3.40" stroke-linecap="round"/>
  <line x1="110" y1="280" x2="140" y2="262" stroke="#ffffff" stroke-opacity=".7" stroke-width="2.55" stroke-linecap="round"/>
</g></g>
  <rect x="90" y="46" width="72" height="8" rx="4" fill="#5eead4"/>
  <text x="90" y="78" font-family="Inter, 'Segoe UI', Helvetica, Arial, sans-serif" font-size="20" font-weight="600" fill="#ffffff" fill-opacity="0.85" letter-spacing="4">REVENUE CYCLE</text>
  <text x="90" y="138" font-family="Inter, 'Segoe UI', Helvetica, Arial, sans-serif" font-size="70" font-weight="800" fill="#ffffff" letter-spacing="-2">Prior</text>
  <text x="90" y="214" font-family="Inter, 'Segoe UI', Helvetica, Arial, sans-serif" font-size="70" font-weight="800" fill="#ffffff" letter-spacing="-2">authorization</text>
  <text x="90" y="256" font-family="Inter, 'Segoe UI', Helvetica, Arial, sans-serif" font-size="24" fill="#ffffff" fill-opacity="0.85">Billing process guide</text>
  <text x="90" y="336" font-family="Inter, 'Segoe UI', Helvetica, Arial, sans-serif" font-size="20" font-weight="600" fill="#ffffff" fill-opacity="0.7">Verified RCM</text>
</svg>
