<svg xmlns="http://www.w3.org/2000/svg" width="1200" height="630" viewBox="0 0 1200 630" role="img" aria-label="Healthcare SEO, Growth guide">
  <defs>
    <linearGradient id="bgseoservices" x1="0" y1="0" x2="1" y2="1"><stop offset="0" stop-color="#164e63"/><stop offset="1" stop-color="#0e7490"/></linearGradient>
    <radialGradient id="glseoservices" cx="0.85" cy="0.2" r="0.6"><stop offset="0" stop-color="#fcd34d" stop-opacity="0.5"/><stop offset="1" stop-color="#fcd34d" stop-opacity="0"/></radialGradient>
    <pattern id="grseoservices" width="40" height="40" patternUnits="userSpaceOnUse"><path d="M40 0H0V40" fill="none" stroke="#ffffff" stroke-opacity="0.07" stroke-width="1"/></pattern>
    <clipPath id="cpseoservices"><rect x="800" y="145" width="340" height="340" rx="28"/></clipPath>
  </defs>
  <rect width="1200" height="630" fill="url(#bgseoservices)"/>
  <rect width="1200" height="630" fill="url(#grseoservices)"/>
  <rect width="1200" height="630" fill="url(#glseoservices)"/>
  <circle cx="1040" cy="130" r="220" fill="#fcd34d" fill-opacity="0.14"/>
  <circle cx="1110" cy="550" r="150" fill="#ffffff" fill-opacity="0.06"/>
  <rect x="800" y="145" width="340" height="340" rx="28" fill="#ffffff" fill-opacity="0.09" stroke="#fcd34d" stroke-opacity="0.55" stroke-width="2"/>
  <g clip-path="url(#cpseoservices)"><g transform="translate(820 165) scale(0.6250)">
  <circle cx="185" cy="205" r="82" fill="none" stroke="#ffffff" stroke-width="5.95" />
  <circle cx="185" cy="205" r="58" fill="none" stroke="#ffffff" stroke-opacity=".7" stroke-width="2.55" />
  <line x1="240" y1="260" x2="330" y2="350" stroke="#ffffff" stroke-width="6.80" stroke-linecap="round" />

  <path d="M 120 300 C 165 300, 165 230, 210 230 S 255 150, 300 150" fill="none" stroke="#fcd34d" stroke-width="5.10" stroke-linecap="round" stroke-linejoin="round" />
  <path d="M 282 140 L 300 150 L 296 170" fill="none" stroke="#fcd34d" stroke-width="4.25" stroke-linecap="round" stroke-linejoin="round" />

  <circle cx="120" cy="300" r="4" fill="#fcd34d" stroke="none" />

  <path d="M 150 230 A 40 40 0 0 1 185 190" fill="none" stroke="#ffffff" stroke-opacity=".7" stroke-width="3.40" stroke-linecap="round" />
  <line x1="90" y1="120" x2="130" y2="120" stroke="#ffffff" stroke-opacity=".7" stroke-width="3.40" stroke-linecap="round" />
  <line x1="360" y1="370" x2="392" y2="370" stroke="#ffffff" stroke-opacity=".7" stroke-width="3.40" stroke-linecap="round" />
  <circle cx="360" cy="230" r="3" fill="#ffffff" fill-opacity=".7" stroke="none" />
</g></g>
  <rect x="90" y="118" width="72" height="8" rx="4" fill="#fcd34d"/>
  <text x="90" y="178" font-family="Inter, 'Segoe UI', Helvetica, Arial, sans-serif" font-size="24" font-weight="600" fill="#ffffff" fill-opacity="0.85" letter-spacing="4">PRACTICE GROWTH</text>
  <text x="90" y="292" font-family="Inter, 'Segoe UI', Helvetica, Arial, sans-serif" font-size="110" font-weight="800" fill="#ffffff" letter-spacing="-2">Healthcare</text>
  <text x="90" y="411" font-family="Inter, 'Segoe UI', Helvetica, Arial, sans-serif" font-size="110" font-weight="800" fill="#ffffff" letter-spacing="-2">SEO</text>
  <text x="90" y="473" font-family="Inter, 'Segoe UI', Helvetica, Arial, sans-serif" font-size="30" fill="#ffffff" fill-opacity="0.85">Growth guide</text>
  <text x="90" y="560" font-family="Inter, 'Segoe UI', Helvetica, Arial, sans-serif" font-size="22" font-weight="600" fill="#ffffff" fill-opacity="0.7">Verified RCM</text>
</svg>
