<svg xmlns="http://www.w3.org/2000/svg" width="1200" height="360" viewBox="0 0 1200 360" role="img" aria-label="Urology, Billing and coding guide">
  <defs>
    <linearGradient id="bgspecialtyurology" x1="0" y1="0" x2="1" y2="1"><stop offset="0" stop-color="#312e81"/><stop offset="1" stop-color="#4338ca"/></linearGradient>
    <radialGradient id="glspecialtyurology" cx="0.85" cy="0.2" r="0.6"><stop offset="0" stop-color="#5eead4" stop-opacity="0.5"/><stop offset="1" stop-color="#5eead4" stop-opacity="0"/></radialGradient>
    <pattern id="grspecialtyurology" width="40" height="40" patternUnits="userSpaceOnUse"><path d="M40 0H0V40" fill="none" stroke="#ffffff" stroke-opacity="0.07" stroke-width="1"/></pattern>
    <clipPath id="cpspecialtyurology"><rect x="860" y="55" width="250" height="250" rx="28"/></clipPath>
  </defs>
  <rect width="1200" height="360" fill="url(#bgspecialtyurology)"/>
  <rect width="1200" height="360" fill="url(#grspecialtyurology)"/>
  <rect width="1200" height="360" fill="url(#glspecialtyurology)"/>
  <circle cx="1040" cy="60" r="170" fill="#5eead4" fill-opacity="0.14"/>
  <circle cx="1110" cy="280" r="110" fill="#ffffff" fill-opacity="0.06"/>
  <rect x="860" y="55" width="250" height="250" rx="28" fill="#ffffff" fill-opacity="0.09" stroke="#5eead4" stroke-opacity="0.55" stroke-width="2"/>
  <g clip-path="url(#cpspecialtyurology)"><g transform="translate(880 75) scale(0.4375)">
  
  <path d="M 90 155 C 140 138, 175 158, 205 178 C 222 189, 232 193, 245 194" fill="none" stroke="#ffffff" stroke-opacity=".7" stroke-width="2.55" stroke-linecap="round" stroke-linejoin="round"/>
  
  <path d="M 245 286 C 265 289, 285 300, 320 300 C 355 300, 380 312, 410 322" fill="none" stroke="#ffffff" stroke-opacity=".7" stroke-width="2.55" stroke-linecap="round" stroke-linejoin="round"/>

  
  <path d="M 60 195 C 120 170, 170 195, 205 222 C 222 235, 232 239, 240 240 C 248 241, 258 246, 278 243 C 320 237, 355 258, 420 285" fill="none" stroke="#ffffff" stroke-width="5.10" stroke-linecap="round" stroke-linejoin="round"/>

  
  <path d="M 266 214 L 278 200" fill="none" stroke="#ffffff" stroke-opacity=".7" stroke-width="3.40" stroke-linecap="round"/>
  <path d="M 214 214 L 202 200" fill="none" stroke="#ffffff" stroke-opacity=".7" stroke-width="3.40" stroke-linecap="round"/>
  <path d="M 266 266 L 278 280" fill="none" stroke="#ffffff" stroke-opacity=".7" stroke-width="3.40" stroke-linecap="round"/>
  <path d="M 214 266 L 202 280" fill="none" stroke="#ffffff" stroke-opacity=".7" stroke-width="3.40" stroke-linecap="round"/>

  
  <circle cx="240" cy="240" r="34" fill="none" stroke="#5eead4" stroke-width="4.25"/>
  <circle cx="240" cy="240" r="11" fill="none" stroke="#5eead4" stroke-width="3.40"/>

  
  <circle cx="130" cy="182" r="3" fill="none" stroke="#ffffff" stroke-opacity=".7" stroke-width="3.40"/>
  <circle cx="185" cy="208" r="3" fill="none" stroke="#ffffff" stroke-opacity=".7" stroke-width="3.40"/>
  <circle cx="300" cy="235" r="4" fill="#5eead4" stroke="none"/>
</g></g>
  <rect x="90" y="46" width="72" height="8" rx="4" fill="#5eead4"/>
  <text x="90" y="78" font-family="Inter, 'Segoe UI', Helvetica, Arial, sans-serif" font-size="20" font-weight="600" fill="#ffffff" fill-opacity="0.85" letter-spacing="4">SURGICAL SPECIALTY</text>
  <text x="90" y="160" font-family="Inter, 'Segoe UI', Helvetica, Arial, sans-serif" font-size="84" font-weight="800" fill="#ffffff" letter-spacing="-2">Urology</text>
  <text x="90" y="202" font-family="Inter, 'Segoe UI', Helvetica, Arial, sans-serif" font-size="24" fill="#ffffff" fill-opacity="0.85">Billing and coding guide</text>
  <text x="90" y="336" font-family="Inter, 'Segoe UI', Helvetica, Arial, sans-serif" font-size="20" font-weight="600" fill="#ffffff" fill-opacity="0.7">Verified RCM</text>
</svg>
