<svg xmlns="http://www.w3.org/2000/svg" width="1200" height="360" viewBox="0 0 1200 360" role="img" aria-label="Plastic surgery, Billing and coding guide">
  <defs>
    <linearGradient id="bgspecialtyplasticsurgery" x1="0" y1="0" x2="1" y2="1"><stop offset="0" stop-color="#312e81"/><stop offset="1" stop-color="#4338ca"/></linearGradient>
    <radialGradient id="glspecialtyplasticsurgery" cx="0.85" cy="0.2" r="0.6"><stop offset="0" stop-color="#5eead4" stop-opacity="0.5"/><stop offset="1" stop-color="#5eead4" stop-opacity="0"/></radialGradient>
    <pattern id="grspecialtyplasticsurgery" width="40" height="40" patternUnits="userSpaceOnUse"><path d="M40 0H0V40" fill="none" stroke="#ffffff" stroke-opacity="0.07" stroke-width="1"/></pattern>
    <clipPath id="cpspecialtyplasticsurgery"><rect x="860" y="55" width="250" height="250" rx="28"/></clipPath>
  </defs>
  <rect width="1200" height="360" fill="url(#bgspecialtyplasticsurgery)"/>
  <rect width="1200" height="360" fill="url(#grspecialtyplasticsurgery)"/>
  <rect width="1200" height="360" fill="url(#glspecialtyplasticsurgery)"/>
  <circle cx="1040" cy="60" r="170" fill="#5eead4" fill-opacity="0.14"/>
  <circle cx="1110" cy="280" r="110" fill="#ffffff" fill-opacity="0.06"/>
  <rect x="860" y="55" width="250" height="250" rx="28" fill="#ffffff" fill-opacity="0.09" stroke="#5eead4" stroke-opacity="0.55" stroke-width="2"/>
  <g clip-path="url(#cpspecialtyplasticsurgery)"><g transform="translate(880 75) scale(0.4375)">
  <path d="M165,90 C95,175 95,305 165,390" fill="none" stroke="#ffffff" stroke-opacity=".7" stroke-width="2.98" stroke-linecap="round" stroke-linejoin="round" />
  <path d="M320,95 C395,170 390,310 315,385" fill="none" stroke="#ffffff" stroke-opacity=".7" stroke-width="2.55" stroke-linecap="round" stroke-linejoin="round" />
  <path d="M195,110 C140,170 140,310 195,370" fill="none" stroke="#ffffff" stroke-width="5.10" stroke-linecap="round" stroke-linejoin="round" />
  <path d="M290,100 C350,165 345,320 285,375" fill="none" stroke="#ffffff" stroke-width="4.25" stroke-linecap="round" stroke-linejoin="round" />
  <line x1="226" y1="163" x2="256" y2="177" stroke="#ffffff" stroke-width="3.40" stroke-linecap="round" />
  <line x1="222" y1="207" x2="252" y2="219" stroke="#ffffff" stroke-width="3.40" stroke-linecap="round" />
  <line x1="220" y1="251" x2="250" y2="261" stroke="#ffffff" stroke-width="3.40" stroke-linecap="round" />
  <line x1="222" y1="295" x2="252" y2="303" stroke="#ffffff" stroke-width="3.40" stroke-linecap="round" />
  <line x1="227" y1="323" x2="257" y2="333" stroke="#ffffff" stroke-width="3.40" stroke-linecap="round" />
  <path d="M240,130 C245,200 235,280 240,350" fill="none" stroke="#5eead4" stroke-width="5.10" stroke-linecap="round" stroke-linejoin="round" />
  <circle cx="240" cy="130" r="4" fill="#5eead4" />
  <circle cx="240" cy="350" r="4" fill="#5eead4" />
</g></g>
  <rect x="90" y="46" width="72" height="8" rx="4" fill="#5eead4"/>
  <text x="90" y="78" font-family="Inter, 'Segoe UI', Helvetica, Arial, sans-serif" font-size="20" font-weight="600" fill="#ffffff" fill-opacity="0.85" letter-spacing="4">SURGICAL SPECIALTY</text>
  <text x="90" y="138" font-family="Inter, 'Segoe UI', Helvetica, Arial, sans-serif" font-size="70" font-weight="800" fill="#ffffff" letter-spacing="-2">Plastic</text>
  <text x="90" y="214" font-family="Inter, 'Segoe UI', Helvetica, Arial, sans-serif" font-size="70" font-weight="800" fill="#ffffff" letter-spacing="-2">surgery</text>
  <text x="90" y="256" font-family="Inter, 'Segoe UI', Helvetica, Arial, sans-serif" font-size="24" fill="#ffffff" fill-opacity="0.85">Billing and coding guide</text>
  <text x="90" y="336" font-family="Inter, 'Segoe UI', Helvetica, Arial, sans-serif" font-size="20" font-weight="600" fill="#ffffff" fill-opacity="0.7">Verified RCM</text>
</svg>
