<svg xmlns="http://www.w3.org/2000/svg" width="1200" height="360" viewBox="0 0 1200 360" role="img" aria-label="Dental care, Billing and coding guide">
  <defs>
    <linearGradient id="bgspecialtydentalcare" x1="0" y1="0" x2="1" y2="1"><stop offset="0" stop-color="#0c4a6e"/><stop offset="1" stop-color="#0369a1"/></linearGradient>
    <radialGradient id="glspecialtydentalcare" cx="0.85" cy="0.2" r="0.6"><stop offset="0" stop-color="#5eead4" stop-opacity="0.5"/><stop offset="1" stop-color="#5eead4" stop-opacity="0"/></radialGradient>
    <pattern id="grspecialtydentalcare" width="40" height="40" patternUnits="userSpaceOnUse"><path d="M40 0H0V40" fill="none" stroke="#ffffff" stroke-opacity="0.07" stroke-width="1"/></pattern>
    <clipPath id="cpspecialtydentalcare"><rect x="860" y="55" width="250" height="250" rx="28"/></clipPath>
  </defs>
  <rect width="1200" height="360" fill="url(#bgspecialtydentalcare)"/>
  <rect width="1200" height="360" fill="url(#grspecialtydentalcare)"/>
  <rect width="1200" height="360" fill="url(#glspecialtydentalcare)"/>
  <circle cx="1040" cy="60" r="170" fill="#5eead4" fill-opacity="0.14"/>
  <circle cx="1110" cy="280" r="110" fill="#ffffff" fill-opacity="0.06"/>
  <rect x="860" y="55" width="250" height="250" rx="28" fill="#ffffff" fill-opacity="0.09" stroke="#5eead4" stroke-opacity="0.55" stroke-width="2"/>
  <g clip-path="url(#cpspecialtydentalcare)"><g transform="translate(880 75) scale(0.4375)">
  <path d="M97.9,242.5 Q240,197.5 382.1,242.5" fill="none" stroke="#ffffff" stroke-opacity=".7" stroke-width="3.40" stroke-linecap="round" stroke-linejoin="round"/>
  <line x1="97.9" y1="242.5" x2="92.3" y2="225.4" stroke="#ffffff" stroke-width="4.25" stroke-linecap="round"/>
  <line x1="132.6" y1="232.7" x2="128.4" y2="215.2" stroke="#ffffff" stroke-width="4.25" stroke-linecap="round"/>
  <line x1="168.1" y1="225.7" x2="165.3" y2="207.9" stroke="#ffffff" stroke-width="4.25" stroke-linecap="round"/>
  <line x1="203.9" y1="221.4" x2="202.5" y2="203.4" stroke="#5eead4" stroke-width="5.95" stroke-linecap="round"/>
  <line x1="276.1" y1="221.4" x2="277.5" y2="203.4" stroke="#5eead4" stroke-width="5.95" stroke-linecap="round"/>
  <line x1="311.9" y1="225.7" x2="314.7" y2="207.9" stroke="#ffffff" stroke-width="4.25" stroke-linecap="round"/>
  <line x1="347.4" y1="232.7" x2="351.6" y2="215.2" stroke="#ffffff" stroke-width="4.25" stroke-linecap="round"/>
  <line x1="382.1" y1="242.5" x2="387.7" y2="225.4" stroke="#ffffff" stroke-width="4.25" stroke-linecap="round"/>
  <line x1="240" y1="220" x2="240" y2="202" stroke="#ffffff" stroke-width="4.25" stroke-linecap="round"/>
</g></g>
  <rect x="90" y="46" width="72" height="8" rx="4" fill="#5eead4"/>
  <text x="90" y="78" font-family="Inter, 'Segoe UI', Helvetica, Arial, sans-serif" font-size="20" font-weight="600" fill="#ffffff" fill-opacity="0.85" letter-spacing="4">DENTAL</text>
  <text x="90" y="160" font-family="Inter, 'Segoe UI', Helvetica, Arial, sans-serif" font-size="84" font-weight="800" fill="#ffffff" letter-spacing="-2">Dental care</text>
  <text x="90" y="202" font-family="Inter, 'Segoe UI', Helvetica, Arial, sans-serif" font-size="24" fill="#ffffff" fill-opacity="0.85">Billing and coding guide</text>
  <text x="90" y="336" font-family="Inter, 'Segoe UI', Helvetica, Arial, sans-serif" font-size="20" font-weight="600" fill="#ffffff" fill-opacity="0.7">Verified RCM</text>
</svg>
